<svg id="Layer_1" data-name="Layer 1" xmlns="http://www.w3.org/2000/svg" viewBox="0 0 218 48.89"><defs><style>.cls-1{fill:#ed1b2e;}.cls-2{fill:#fff;}.cls-3{fill:#0053a0;}</style></defs><title>MetroTransitLogo</title><path class="cls-1" d="M17.92,0A17.92,17.92,0,1,0,35.83,17.92,17.92,17.92,0,0,0,17.92,0"/><polygon class="cls-2" points="30.24 15.48 21.12 15.48 21.12 31.07 14.58 31.07 14.58 15.48 5.18 15.48 5.18 8.94 30.24 8.94 30.24 15.48"/><path class="cls-3" d="M71.33,26.42v-17c0-3.08.59-3.67,3.36-3.67v-1H66L58.3,26.34H58.22L50.6,4.77H42v1c2.8,0,3.36.59,3.36,3.67v17c0,3.08-.55,3.67-3.36,3.67v1h9.2v-1c-2.84,0-3.36-.59-3.36-3.67V7.81h0.08l8.29,23.26H59L67.26,7.81h0.08v18.6c0,3.08-.59,3.67-3.36,3.67v1h10.7v-1c-2.76,0-3.36-.59-3.36-3.67"/><path class="cls-3" d="M80.84,13.21c-5.09,0-7.95,2.78-7.95,8.52,0,6.31,3.46,9.73,9.31,9.73a15,15,0,0,0,5.25-1V29.1a10,10,0,0,1-3.5.65c-5.4,0-6.92-5.36-6.92-9.35H87.79c0-3.19-1-7.19-7-7.19M77,18.83c0-1.48.76-4.33,3.65-4.33,2.62,0,3.27,1.94,3.27,4.33H77Z"/><path class="cls-3" d="M109.87,13.21c-3.12,0-4.52,2.7-5.17,4.41h-0.08V13.21L99,14V13.59H94.06V7.28H93c-0.19,2.89-1.33,6.8-5.82,6.8v1.06h3.08V26.48c0,4.45,2.81,5,6.16,5a6.07,6.07,0,0,0,2-.38h9.06V30.24c-2.21,0-2.85-.68-2.85-3.31V22.67c0-3.92,1.71-6.23,2.89-6.23s1,0.87,2.36.87a2,2,0,0,0,2.05-2.13,2.07,2.07,0,0,0-2.05-2M100.78,26.8c0,2.62-.65,3.32-2.85,3.32h-0.8c-2,0-3.08-1.1-3.08-3.64V15.15h4.66c1.14,0.16,2.06.78,2.06,3V26.8Z"/><path class="cls-3" d="M119.48,13.21c-5.51,0-8.14,3-8.14,9.12s2.62,9.12,8.14,9.12,8.14-3,8.14-9.12-2.62-9.12-8.14-9.12m0,17c-3.31,0-4-3.8-4-7.83s0.68-7.83,4-7.83,4,3.8,4,7.83-0.68,7.83-4,7.83"/><polygon class="cls-1" points="137.3 6.79 128.19 6.79 128.19 4.53 148.9 4.53 148.9 6.79 139.79 6.79 139.79 31.2 137.3 31.2 137.3 6.79"/><path class="cls-1" d="M145.21,18.69c0-1.28-.19-4-0.19-4.9h2.26c0,1.28.08,2.71,0.15,3.05a6.18,6.18,0,0,1,5.54-3.5,5.32,5.32,0,0,1,1.32.19L154,15.75a2.79,2.79,0,0,0-.87-0.15c-3.92,0-5.69,2.71-5.69,6.1V31.2h-2.26V18.69Z"/><path class="cls-1" d="M168.82,23.89a53.35,53.35,0,0,0,.34,7.31H167a16.82,16.82,0,0,1-.23-2.82h-0.07c-1.28,2.22-3.16,3.28-6.1,3.28s-6.14-1.47-6.14-5.16c0-5.31,6.21-5.84,9.64-5.84h2.64V19.6c0-3-2.11-4.22-4.9-4.22a7.86,7.86,0,0,0-5.31,2l-1.32-1.54a10.15,10.15,0,0,1,6.63-2.45c4.22,0,6.93,1.88,6.93,6.29v4.26Zm-4.52-1.43c-3.77,0-7.53.94-7.53,3.92,0,2.15,2.07,3.24,4,3.24,4.82,0,6.06-3.09,6.06-6V22.46H164.3Z"/><path class="cls-1" d="M171.26,18.69c0-1.28-.19-4-0.19-4.9h2.26c0,1.28.08,2.71,0.15,3.05h0.11a6.51,6.51,0,0,1,6-3.5c5.42,0,6.63,3.69,6.63,7.5V31.2h-2.26V21c0-2.82-.79-5.57-4.37-5.57-3.35,0-6,2.33-6,7.12v8.7h-2.26V18.69Z"/><path class="cls-1" d="M189.41,26.75a5.64,5.64,0,0,0,5,2.86c2,0,4-1.21,4-3.2,0-4.78-10.32-1.43-10.32-8.06,0-3.39,3.09-5,6-5s5,1.05,6.14,3.28l-2,1.21a4.26,4.26,0,0,0-4.11-2.45c-1.62,0-3.69,1-3.69,2.79,0,4.71,10.32,1.05,10.32,8.1,0,3.58-3,5.39-6.29,5.39-3,0-5.65-1.13-7-3.54Z"/><path class="cls-1" d="M202.58,13.8h2.26V31.2h-2.26V13.8Zm1.13-8.59A1.69,1.69,0,1,1,202,6.9a1.69,1.69,0,0,1,1.7-1.69"/><path class="cls-1" d="M217.81,15.83h-5V27.17a2.23,2.23,0,0,0,2.41,2.45,6.72,6.72,0,0,0,2.56-.6L218,31a10,10,0,0,1-2.94.6c-3.24,0-4.48-2-4.48-4.48V15.83h-3.77v-2h3.77v-5h2.26v5h5v2Z"/><path class="cls-3" d="M47.19,40.66A1.26,1.26,0,0,0,46,40a1.55,1.55,0,0,0-1.68,1.19c-0.09.65,0.23,0.94,1.31,1.3s2,0.71,1.83,2.1a2.6,2.6,0,0,1-2.79,2.07,2.21,2.21,0,0,1-2-1l0.81-.59a1.44,1.44,0,0,0,1.39.79,1.67,1.67,0,0,0,1.72-1.23c0.12-.87-0.45-1-1.65-1.44-0.95-.33-1.65-0.77-1.49-1.95a2.54,2.54,0,0,1,2.7-2,2.09,2.09,0,0,1,1.86.83Z"/><path class="cls-3" d="M52.73,45.64a2.78,2.78,0,0,1-2.22,1,2,2,0,0,1-2-2.46,2.77,2.77,0,0,1,2.74-2.46c1.32,0,2.1.9,1.88,2.45l0,0.25H49.3a1.31,1.31,0,0,0,1.31,1.5,2,2,0,0,0,1.59-.71Zm-0.4-1.91a1.11,1.11,0,0,0-1.23-1.32,1.71,1.71,0,0,0-1.71,1.32h2.94Z"/><path class="cls-3" d="M54.49,42.92c0.06-.43.07-0.8,0.12-1.11h0.74c0,0.25,0,.51-0.09.77h0A2,2,0,0,1,57,41.69a0.92,0.92,0,0,1,.32,0l-0.16.79a1.4,1.4,0,0,0-.41-0.06,1.67,1.67,0,0,0-1.62,1.74l-0.32,2.28H54Z"/><path class="cls-3" d="M59.64,46.49H58.78l-1.25-4.68h0.91l0.94,3.67h0l1.91-3.67h0.84Z"/><path class="cls-3" d="M63.06,41.81h0.78l-0.66,4.68H62.4Zm0.73-2.4a0.47,0.47,0,0,1,.48.57,0.65,0.65,0,0,1-.65.57A0.47,0.47,0,0,1,63.13,40,0.69,0.69,0,0,1,63.79,39.41Z"/><path class="cls-3" d="M65.23,42.92c0.06-.43.07-0.8,0.12-1.11h0.74c0,0.25,0,.51-0.09.77h0a2,2,0,0,1,1.68-.89,1.44,1.44,0,0,1,1.52,1.91l-0.41,2.89H68l0.39-2.81c0.11-.78-0.16-1.27-0.89-1.27a1.75,1.75,0,0,0-1.7,1.8l-0.32,2.28H64.73Z"/><path class="cls-3" d="M75,46.28a2.74,2.74,0,0,1-2.92,2.61A2.64,2.64,0,0,1,69.9,48l0.65-.64a1.9,1.9,0,0,0,1.62.81,1.92,1.92,0,0,0,2-1.89l0.08-.6h0a2.22,2.22,0,0,1-1.77.87,2,2,0,0,1-2.15-2.4,2.72,2.72,0,0,1,2.83-2.46,1.58,1.58,0,0,1,1.53.92h0l0.11-.8h0.78Zm-2.39-.45a1.91,1.91,0,0,0,1.91-1.7,1.38,1.38,0,0,0-1.43-1.72,2,2,0,0,0-1.89,1.74A1.4,1.4,0,0,0,72.6,45.83Z"/><path class="cls-3" d="M82.31,42.47H80.93L80.6,44.81c-0.09.6-.15,1.08,0.54,1.08a1.7,1.7,0,0,0,.72-0.16l-0.07.71a2.59,2.59,0,0,1-.94.17c-1.11,0-1.2-.6-1.07-1.57l0.37-2.57h-1l0.09-.66h1l0.18-1.33H81.2L81,41.81H82.4Z"/><path class="cls-3" d="M83.76,38.94h0.78L84,42.46h0a2,2,0,0,1,1.6-.77,1.44,1.44,0,0,1,1.52,1.91l-0.41,2.89H86l0.39-2.81c0.11-.78-0.16-1.27-0.89-1.27a1.75,1.75,0,0,0-1.7,1.8l-0.32,2.28H82.7Z"/><path class="cls-3" d="M92.56,45.64a2.78,2.78,0,0,1-2.22,1,2,2,0,0,1-2-2.46,2.77,2.77,0,0,1,2.74-2.46c1.32,0,2.1.9,1.88,2.45l0,0.25H89.13a1.31,1.31,0,0,0,1.31,1.5A2,2,0,0,0,92,45.18Zm-0.4-1.91a1.11,1.11,0,0,0-1.23-1.32,1.71,1.71,0,0,0-1.71,1.32h2.94Z"/><path class="cls-3" d="M97.74,39.41H99L100.61,45h0l3.2-5.55H105l-1,7.08h-0.84L104,40.55h0l-3.37,5.94h-0.51l-1.71-5.94h0l-0.83,5.94H96.74Z"/><path class="cls-3" d="M106.4,41.81h0.78l-0.66,4.68h-0.78Zm0.73-2.4a0.47,0.47,0,0,1,.48.57,0.65,0.65,0,0,1-.65.57,0.47,0.47,0,0,1-.49-0.57A0.69,0.69,0,0,1,107.13,39.41Z"/><path class="cls-3" d="M108.57,42.92c0.06-.43.07-0.8,0.12-1.11h0.74c0,0.25,0,.51-0.09.77h0a2,2,0,0,1,1.68-.89,1.44,1.44,0,0,1,1.52,1.91l-0.41,2.89h-0.78l0.39-2.81c0.11-.78-0.16-1.27-0.89-1.27a1.75,1.75,0,0,0-1.7,1.8l-0.32,2.28h-0.78Z"/><path class="cls-3" d="M114.13,42.92c0.06-.43.07-0.8,0.12-1.11H115c0,0.25,0,.51-0.09.77h0a2,2,0,0,1,1.68-.89,1.44,1.44,0,0,1,1.52,1.91l-0.41,2.89h-0.78l0.39-2.81c0.11-.78-0.16-1.27-0.89-1.27a1.75,1.75,0,0,0-1.7,1.8l-0.32,2.28h-0.78Z"/><path class="cls-3" d="M123.49,45.64a2.78,2.78,0,0,1-2.22,1,2,2,0,0,1-2-2.46A2.77,2.77,0,0,1,122,41.69c1.32,0,2.1.9,1.88,2.45l0,0.25h-3.78a1.31,1.31,0,0,0,1.31,1.5,2,2,0,0,0,1.59-.71Zm-0.4-1.91a1.11,1.11,0,0,0-1.23-1.32,1.71,1.71,0,0,0-1.71,1.32h2.94Z"/><path class="cls-3" d="M125.26,42.41a3,3,0,0,1,2-.72c1.38,0,1.87.66,1.69,2l-0.29,2a5.76,5.76,0,0,0,0,.81h-0.75a3.26,3.26,0,0,1,0-.7h0a2.09,2.09,0,0,1-1.66.82c-0.95,0-1.67-.48-1.54-1.39,0.22-1.55,2-1.64,3.18-1.64h0.3l0-.14a0.86,0.86,0,0,0-1-1,2.36,2.36,0,0,0-1.46.51Zm2,1.83c-1,0-1.67.27-1.76,0.9s0.33,0.81.92,0.81A1.57,1.57,0,0,0,128,44.54l0-.3h-0.78Z"/><path class="cls-3" d="M130.56,41.81h0.78l-0.1.68h0a2.52,2.52,0,0,1,1.79-.8,2,2,0,0,1,2.12,2.46,2.82,2.82,0,0,1-2.69,2.46,1.71,1.71,0,0,1-1.66-.95h0l-0.44,3.11h-0.78Zm1.86,4.08a1.94,1.94,0,0,0,1.91-1.74,1.4,1.4,0,0,0-1.42-1.74,1.93,1.93,0,0,0-1.9,1.74A1.39,1.39,0,0,0,132.42,45.89Z"/><path class="cls-3" d="M138.95,41.69a2,2,0,0,1,2.16,2.46,2.83,2.83,0,0,1-2.85,2.46,2,2,0,0,1-2.15-2.46A2.81,2.81,0,0,1,138.95,41.69Zm-0.59,4.2a1.94,1.94,0,0,0,1.91-1.74,1.4,1.4,0,0,0-1.42-1.74,1.93,1.93,0,0,0-1.9,1.74A1.39,1.39,0,0,0,138.36,45.89Z"/><path class="cls-3" d="M143.12,38.94h0.78l-1.06,7.56h-0.78Z"/><path class="cls-3" d="M145.12,41.81h0.78l-0.66,4.68h-0.78Zm0.73-2.4a0.47,0.47,0,0,1,.48.57,0.65,0.65,0,0,1-.65.57,0.47,0.47,0,0,1-.49-0.57A0.69,0.69,0,0,1,145.85,39.41Z"/><path class="cls-3" d="M147.06,45.26a1.23,1.23,0,0,0,1.11.63,1.05,1.05,0,0,0,1.14-.72c0.07-.5-0.42-0.63-0.9-0.74-0.86-.2-1.6-0.39-1.46-1.36a1.83,1.83,0,0,1,1.94-1.38,1.47,1.47,0,0,1,1.48.85l-0.72.43a0.94,0.94,0,0,0-.91-0.56,1,1,0,0,0-1,.65c-0.05.39,0.48,0.56,1.09,0.68,0.8,0.16,1.46.46,1.33,1.4a1.89,1.89,0,0,1-2.08,1.47,1.68,1.68,0,0,1-1.69-.87Z"/><path class="cls-3" d="M153.69,46.92l-0.6-.25L157.18,39l0.6,0.24Z"/><path class="cls-3" d="M164.63,40.66a1.26,1.26,0,0,0-1.2-.65,1.55,1.55,0,0,0-1.68,1.19c-0.09.65,0.23,0.94,1.31,1.3s2,0.71,1.83,2.1a2.6,2.6,0,0,1-2.79,2.07,2.21,2.21,0,0,1-2-1l0.81-.59a1.44,1.44,0,0,0,1.39.79A1.67,1.67,0,0,0,164,44.66c0.12-.87-0.45-1-1.65-1.44-0.95-.33-1.65-0.77-1.49-1.95a2.54,2.54,0,0,1,2.7-2,2.09,2.09,0,0,1,1.86.83Z"/><path class="cls-3" d="M169,42.47h-1.38l-0.33,2.34c-0.09.6-.15,1.08,0.54,1.08a1.7,1.7,0,0,0,.72-0.16l-0.07.71a2.59,2.59,0,0,1-.94.17c-1.11,0-1.2-.6-1.07-1.57l0.37-2.57h-1l0.09-.66h1l0.18-1.33h0.78l-0.18,1.33h1.38Z"/><path class="cls-3" d="M170.72,46a0.74,0.74,0,0,1-.69.6,0.51,0.51,0,0,1-.51-0.6,0.71,0.71,0,0,1,.68-0.6A0.52,0.52,0,0,1,170.72,46Z"/><path class="cls-3" d="M176.09,39.41h2.1c1.3,0,2.41.46,2.2,1.94a2.37,2.37,0,0,1-2.59,2h-1.42l-0.45,3.18h-0.84Zm0.4,3.12h1.42a1.4,1.4,0,0,0,1.58-1.17,1,1,0,0,0-1.25-1.17h-1.42Z"/><path class="cls-3" d="M181.39,42.41a3,3,0,0,1,2-.72c1.38,0,1.87.66,1.69,2l-0.29,2a5.76,5.76,0,0,0,0,.81H184a3.26,3.26,0,0,1,0-.7h0a2.09,2.09,0,0,1-1.66.82c-0.95,0-1.67-.48-1.54-1.39,0.22-1.55,2-1.64,3.18-1.64h0.3l0-.14a0.86,0.86,0,0,0-1-1,2.36,2.36,0,0,0-1.46.51Zm2,1.83c-1,0-1.67.27-1.76,0.9S182,46,182.56,46a1.57,1.57,0,0,0,1.57-1.41l0-.3H183.4Z"/><path class="cls-3" d="M190.31,45.38c-0.06.43-.08,0.8-0.12,1.11h-0.74c0-.25,0-0.51.09-0.77h0a2,2,0,0,1-1.69.89c-1.23,0-1.67-.78-1.51-1.91l0.41-2.89h0.78l-0.4,2.81c-0.11.78,0.16,1.27,0.89,1.27a1.76,1.76,0,0,0,1.71-1.8L190,41.81h0.78Z"/><path class="cls-3" d="M192.76,38.94h0.78l-1.06,7.56H191.7Z"/><path class="cls-3" d="M200.25,39.41H201l2,7.08h-1l-0.48-1.74H198l-1,1.74h-0.95Zm0.22,1.08h0l-2,3.48h2.89Z"/><path class="cls-3" d="M204.35,42.92c0.06-.43.07-0.8,0.12-1.11h0.74c0,0.25,0,.51-0.09.77h0a2,2,0,0,1,1.68-.89,0.92,0.92,0,0,1,.32,0l-0.16.79a1.4,1.4,0,0,0-.41-0.06,1.67,1.67,0,0,0-1.62,1.74l-0.32,2.28h-0.78Z"/><path class="cls-3" d="M211.49,45.64a2.78,2.78,0,0,1-2.22,1,2,2,0,0,1-2-2.46A2.77,2.77,0,0,1,210,41.69c1.32,0,2.1.9,1.88,2.45l0,0.25h-3.78a1.31,1.31,0,0,0,1.31,1.5,2,2,0,0,0,1.59-.71Zm-0.4-1.91a1.11,1.11,0,0,0-1.23-1.32,1.71,1.71,0,0,0-1.71,1.32h2.94Z"/><path class="cls-3" d="M213.26,42.41a3,3,0,0,1,2-.72c1.38,0,1.87.66,1.69,2l-0.29,2a5.76,5.76,0,0,0,0,.81h-0.75a3.26,3.26,0,0,1,0-.7h0a2.09,2.09,0,0,1-1.66.82c-0.95,0-1.67-.48-1.54-1.39,0.22-1.55,2-1.64,3.18-1.64h0.3l0-.14a0.86,0.86,0,0,0-1-1,2.36,2.36,0,0,0-1.46.51Zm2,1.83c-1,0-1.67.27-1.76,0.9s0.33,0.81.92,0.81A1.57,1.57,0,0,0,216,44.54l0-.3h-0.78Z"/></svg>