<svg id="Layer_1" data-name="Layer 1" xmlns="http://www.w3.org/2000/svg" viewBox="0 0 82.21 117.22"><defs><style>.cls-1,.cls-9{fill:#ec1f2f;}.cls-2{fill:#ec1c24;}.cls-3,.cls-4,.cls-5,.cls-6,.cls-7,.cls-8{fill:none;}.cls-3,.cls-4,.cls-5,.cls-7,.cls-8,.cls-9{stroke:#fff;}.cls-3,.cls-4,.cls-6,.cls-7,.cls-8{stroke-linecap:round;}.cls-3,.cls-4,.cls-5,.cls-6,.cls-7,.cls-9{stroke-miterlimit:10;}.cls-3,.cls-4,.cls-5{stroke-width:6.18px;}.cls-4{stroke-dasharray:0 9.38;}.cls-6{stroke:#ec1f2f;stroke-width:10.07px;}.cls-7{stroke-width:4.64px;}.cls-8{stroke-linejoin:round;stroke-width:4.53px;}.cls-9{stroke-width:2.71px;}</style></defs><title>High-Freq</title><path class="cls-1" d="M15.24,86.11h2.31v7.84H27.94V86.11h2.31v18.5H27.94V96H17.55v8.62H15.24V86.11Z" transform="translate(-12.83 -7.64)"/><path class="cls-1" d="M39.49,86.11H41.8v18.5H39.49V86.11Z" transform="translate(-12.83 -7.64)"/><path class="cls-1" d="M67.32,103.35A15.63,15.63,0,0,1,60,105.07c-6,0-10.39-3.92-10.39-9.72s4.65-9.72,10.48-9.72A9.62,9.62,0,0,1,67,88.07l-1.73,1.72a7.8,7.8,0,0,0-13.14,5.56c0,4.42,3.27,7.68,8.06,7.68A11.94,11.94,0,0,0,65,102V96.3H60.53v-2h6.79v9.09Z" transform="translate(-12.83 -7.64)"/><path class="cls-1" d="M76,86.11h2.31v7.84H88.71V86.11H91v18.5H88.71V96H78.32v8.62H76V86.11Z" transform="translate(-12.83 -7.64)"/><path class="cls-1" d="M14.76,109.68h7.31v1.83h-5.3v3h5v1.82h-5V121h-2V109.68Z" transform="translate(-12.83 -7.64)"/><path class="cls-1" d="M23.85,113.33h1.92v1.22h0a2.46,2.46,0,0,1,3-1.3v1.86a3.84,3.84,0,0,0-.93-0.14,1.93,1.93,0,0,0-2.07,1.94V121H23.85v-7.68Z" transform="translate(-12.83 -7.64)"/><path class="cls-1" d="M31.4,117.84a2,2,0,0,0,2.06,1.82,2.53,2.53,0,0,0,2.07-1l1.38,1a4.11,4.11,0,1,1-3.25-6.53c2.14,0,3.6,1.5,3.6,4.18v0.53H31.4Zm3.94-1.44a1.77,1.77,0,0,0-2-1.82,1.91,1.91,0,0,0-2,1.82h3.94Z" transform="translate(-12.83 -7.64)"/><path class="cls-1" d="M47,124.66H45.12V120h0a3.16,3.16,0,0,1-2.61,1.17,3.77,3.77,0,0,1-3.71-4,3.73,3.73,0,0,1,3.79-4,3,3,0,0,1,2.64,1.34h0v-1.15H47v11.33Zm-4.11-5.19a2.31,2.31,0,1,0-2.26-2.31A2.22,2.22,0,0,0,42.92,119.48Z" transform="translate(-12.83 -7.64)"/><path class="cls-1" d="M56.3,121H54.47v-1.23h0a2.41,2.41,0,0,1-2.35,1.42c-2.06,0-2.8-1.46-2.8-3v-4.85h1.92v3.89c0,0.85.06,2.26,1.41,2.26a1.72,1.72,0,0,0,1.76-2v-4.19H56.3V121Z" transform="translate(-12.83 -7.64)"/><path class="cls-1" d="M60.09,117.84a2,2,0,0,0,2.06,1.82,2.53,2.53,0,0,0,2.07-1l1.38,1a4.11,4.11,0,1,1-3.25-6.53c2.14,0,3.6,1.5,3.6,4.18v0.53H60.09ZM64,116.4a1.77,1.77,0,0,0-2-1.82,1.91,1.91,0,0,0-2,1.82H64Z" transform="translate(-12.83 -7.64)"/><path class="cls-1" d="M67.82,113.33h1.82v1.23h0A2.41,2.41,0,0,1,72,113.14c2.07,0,2.8,1.46,2.8,3V121H72.91v-3.89c0-.85-0.06-2.26-1.41-2.26a1.72,1.72,0,0,0-1.76,2V121H67.82v-7.68Z" transform="translate(-12.83 -7.64)"/><path class="cls-1" d="M82,115.64a2.12,2.12,0,0,0-1.46-.77,2.31,2.31,0,0,0,0,4.61,1.84,1.84,0,0,0,1.49-.72l1.28,1.38a4.35,4.35,0,0,1-2.77,1.07,4,4,0,1,1,0-8.07,3.75,3.75,0,0,1,2.79,1.17Z" transform="translate(-12.83 -7.64)"/><path class="cls-1" d="M83.51,113.33h2.11l2.14,5.33h0l1.92-5.33h2l-3.63,9.33c-0.56,1.44-1.23,2.19-2.93,2.19a5.73,5.73,0,0,1-1.47-.19l0.24-1.73a2.86,2.86,0,0,0,1,.19A1.37,1.37,0,0,0,86.42,122l0.37-.91Z" transform="translate(-12.83 -7.64)"/><g id="_Group_" data-name="&lt;Group&gt;"><path class="cls-2" d="M92.79,37.51c-3.46-4.37-8.33-10.36-11.87-14-1.93-2-3.93-4-5.95-5.88A37.06,37.06,0,0,0,46.73,7.75c-18,1.36-32.55,15.77-33.81,33.51A35.61,35.61,0,0,0,22.5,68.32,37.19,37.19,0,0,0,74.85,70.2c2.07-1.86,4.12-3.81,6.1-5.8A173.82,173.82,0,0,0,92.84,50.35,10.39,10.39,0,0,0,92.79,37.51Z" transform="translate(-12.83 -7.64)"/><g id="_Group_2" data-name="&lt;Group&gt;"><line class="cls-3" x1="36.48" y1="12.33" x2="36.48" y2="12.33"/><path class="cls-4" d="M58.46,21.78A23.93,23.93,0,0,1,72.75,39.19" transform="translate(-12.83 -7.64)"/><line class="cls-3" x1="60.37" y1="36.22" x2="60.37" y2="36.22"/></g><path id="_Path_" data-name="&lt;Path&gt;" class="cls-5" d="M73.2,43.85A23.89,23.89,0,1,1,49.31,20" transform="translate(-12.83 -7.64)"/><g id="_Group_3" data-name="&lt;Group&gt;"><line class="cls-6" x1="38.6" y1="36.22" x2="69.43" y2="36.22"/><line class="cls-7" x1="38.6" y1="36.22" x2="69.43" y2="36.22"/></g><line id="_Path_2" data-name="&lt;Path&gt;" class="cls-7" x1="37.24" y1="36.22" x2="37.24" y2="21.83"/><polyline id="_Path_3" data-name="&lt;Path&gt;" class="cls-8" points="68.42 30.46 72.1 36.22 68.42 41.97"/><circle id="_Path_4" data-name="&lt;Path&gt;" class="cls-9" cx="37.36" cy="36.22" r="3.61"/></g></svg>