<svg id="HiFreq" xmlns="http://www.w3.org/2000/svg" viewBox="0 0 63.63 68.01"><defs><style>.cls-1{fill:#ed1b2e;}.cls-2{fill:#fff;}</style></defs><title>Hi-Frq-Bus</title><path class="cls-1" d="M63.63,0H34a34,34,0,0,0,0,68H63.63V0Z" transform="translate(0)"/><path class="cls-2" d="M28.79,50.5c0.18-2.41.29-3.51,0.6-6a1.08,1.08,0,0,1,1.15-.91H45.21a1.05,1.05,0,0,1,1.15.87c0.29,2.37.43,3.7,0.6,6.06a1,1,0,0,1-1,1.08H29.74a1,1,0,0,1-.94-1.09h0Zm0,6.2a1.47,1.47,0,1,1,1.47,1.47A1.48,1.48,0,0,1,28.8,56.7h0ZM44,56.7a1.47,1.47,0,1,1,1.47,1.47A1.47,1.47,0,0,1,44,56.7h0ZM43.11,41.63a0.67,0.67,0,0,1-.67.67H33.28a0.67,0.67,0,1,1,0-1.34h9.16a0.67,0.67,0,0,1,.67.67h0ZM26.86,51.79V61.91h1.93v1.77a1.48,1.48,0,1,0,3,0V61.91H44v1.77a1.48,1.48,0,1,0,3,0V61.91h1.93V51.79s-0.53-5.31-.76-7.42c-0.24-2.35-.79-3-2.44-3.82A18.2,18.2,0,0,0,37.89,39a18.22,18.22,0,0,0-7.83,1.58c-1.65.78-2.19,1.47-2.44,3.82-0.22,2.11-.76,7.42-0.76,7.42h0Z" transform="translate(0)"/><path class="cls-2" d="M33.47,8.6c0.09-1.17.14-1.7,0.3-2.91a0.52,0.52,0,0,1,.56-0.44h7.11a0.51,0.51,0,0,1,.56.42c0.14,1.15.2,1.8,0.29,2.94a0.48,0.48,0,0,1-.49.52H33.93a0.46,0.46,0,0,1-.46-0.53h0Zm0,3a0.72,0.72,0,1,1,.72.71,0.72,0.72,0,0,1-.72-0.71h0Zm7.4,0a0.71,0.71,0,1,1,.72.71,0.72,0.72,0,0,1-.72-0.71h0ZM40.42,4.3a0.32,0.32,0,0,1-.33.32H35.65a0.33,0.33,0,1,1,0-.65H40.1a0.33,0.33,0,0,1,.33.33h0ZM32.53,9.23v4.92h0.94V15a0.72,0.72,0,1,0,1.44,0V14.15h6V15a0.72,0.72,0,1,0,1.44,0V14.15h0.94V9.23S43,6.65,42.88,5.62a1.81,1.81,0,0,0-1.19-1.85A8.83,8.83,0,0,0,37.89,3a8.81,8.81,0,0,0-3.8.77A1.81,1.81,0,0,0,32.9,5.62c-0.11,1-.37,3.6-0.37,3.6h0Z" transform="translate(0)"/><path class="cls-2" d="M31.63,26.27c0.12-1.66.2-2.42,0.42-4.13a0.74,0.74,0,0,1,.79-0.62H42.92a0.72,0.72,0,0,1,.79.6c0.2,1.63.29,2.55,0.41,4.17a0.68,0.68,0,0,1-.69.74H32.28a0.65,0.65,0,0,1-.65-0.75h0Zm0,4.26a1,1,0,1,1,1,1,1,1,0,0,1-1-1h0Zm10.48,0a1,1,0,1,1,1,1,1,1,0,0,1-1-1h0ZM41.48,20.16a0.46,0.46,0,0,1-.46.46h-6.3a0.46,0.46,0,1,1,0-.92H41a0.46,0.46,0,0,1,.46.46h0Zm-11.18,7v7h1.33v1.22a1,1,0,1,0,2,0V34.12h8.45v1.22a1,1,0,1,0,2,0V34.12h1.33v-7S45.11,23.5,45,22c-0.17-1.62-.54-2.09-1.68-2.63a12.53,12.53,0,0,0-5.39-1.09,12.52,12.52,0,0,0-5.39,1.09c-1.13.54-1.51,1-1.68,2.63-0.15,1.45-.52,5.11-0.52,5.11h0Z" transform="translate(0)"/><path class="cls-2" d="M8.56,31.65H8.61a4.85,4.85,0,0,1,4.16-2.16c3.52,0,4.43,2.49,4.06,5.17l-1.17,8.28H12.38l0.93-6.64c0.2-1.45.43-3.85-1.86-3.85S8.23,34,8,35.78L7,42.94H3.69L6.6,22.28H9.88L8.56,31.65h0ZM23.79,23.4a2.4,2.4,0,0,0-2.35,2,1.71,1.71,0,0,0,1.8,2,2.4,2.4,0,0,0,2.41-2,1.72,1.72,0,0,0-1.86-2h0Zm-2.51,6.42L19.43,42.94h3.28l1.84-13.12H21.28Z" transform="translate(0)"/><path class="cls-2" d="M59.79,3V7.45H58.67V4.22H56.85V7.27H55.74V4.22H52.86V3h6.93Zm0,5.86v2.41c0,1.33-.43,2.58-2,2.58a1.77,1.77,0,0,1-1.88-1.6l-3.06,1.84V12.58L55.8,11v-0.9H52.86V8.84h6.93ZM56.85,11c0,0.69.06,1.51,1,1.51s0.92-.76.92-1.4V10.08H56.85v1Zm2.94,4.46v4.59H58.67V16.73H57v3.18H55.85V16.73H54v3.53H52.86V15.5h6.93ZM52.86,29.31v-4a3.56,3.56,0,1,1,7.1-.14,3.52,3.52,0,0,1-3.49,3.64,2.83,2.83,0,0,1-2.59-1.46h0v2h-1Zm3.58-6.52a2.35,2.35,0,1,0,0,4.7A2.35,2.35,0,1,0,56.44,22.79Zm-1,13.36a2.79,2.79,0,0,1,0-5.58h4.38V31.8H55.44a1.56,1.56,0,1,0,0,3.11h4.35v1.23H55.4Zm4.38,2v4.59H58.67V39.39H57v3.18H55.85V39.39H54v3.53H52.86V38.15h6.93Zm0,6.22V46l-5.15,3.36,0,0v0l0,0h5.15v1.23H52.86V49.06l5.31-3.42v0H52.86V44.38h6.93ZM58.16,57.22a1.88,1.88,0,0,0,.68-1.46,2.35,2.35,0,0,0-2.48-2.38,2.38,2.38,0,0,0-2.57,2.38,2,2,0,0,0,.84,1.56l-0.72,1a3.07,3.07,0,0,1-1.23-2.58,3.64,3.64,0,1,1,7.28,0,3,3,0,0,1-1.1,2.43Zm-2.34,4.13,4-2.6v1.55L57,62l2.76,1.72v1.47l-4-2.6h-3V61.35h3Z" transform="translate(0)"/></svg>