<svg xmlns="http://www.w3.org/2000/svg" xmlns:xlink="http://www.w3.org/1999/xlink" viewBox="0 0 68 68"><defs><style>.cls-1{isolation:isolate;}.cls-2{fill:#0053a0;}.cls-2,.cls-3,.cls-4,.cls-5,.cls-6{mix-blend-mode:multiply;}.cls-3{fill:url(#radial-gradient);}.cls-4{fill:url(#radial-gradient-2);}.cls-5{fill:url(#radial-gradient-3);}.cls-6{fill:url(#radial-gradient-4);}.cls-7{fill:#fff;}</style><radialGradient id="radial-gradient" cx="58.04" cy="9.96" r="9.96" gradientUnits="userSpaceOnUse"><stop offset="0" stop-color="#00539f" stop-opacity="0.6"/><stop offset="0.26" stop-color="#00539f" stop-opacity="0.67"/><stop offset="0.74" stop-color="#00539f" stop-opacity="0.87"/><stop offset="1" stop-color="#00539f"/></radialGradient><radialGradient id="radial-gradient-2" cx="9.96" cy="58.04" r="9.96" xlink:href="#radial-gradient"/><radialGradient id="radial-gradient-3" cx="9.96" cy="9.96" r="9.96" xlink:href="#radial-gradient"/><radialGradient id="radial-gradient-4" cx="58.04" cy="58.04" r="9.96" xlink:href="#radial-gradient"/></defs><title>PayExit</title><g class="cls-1"><g id="PayExit"><circle class="cls-2" cx="33.45" cy="33.08" r="26.28"/><polygon class="cls-3" points="48.08 0 68 19.92 68 0 48.08 0"/><polygon class="cls-4" points="0 68 19.92 68 0 48.09 0 68"/><polygon class="cls-5" points="0 0 0 19.92 19.92 0 0 0"/><polygon class="cls-6" points="68 68 68 48.09 48.08 68 68 68"/><path class="cls-7" d="M18.5,18.13h4.18c2.33,0,4.27.75,4.27,3.42S25.16,25,22.79,25H21v4.38H18.5V18.13ZM21,22.9h1.65c0.87,0,1.75-.3,1.75-1.35s-1.17-1.32-2.13-1.32H21V22.9Z" transform="translate(0 0)"/><path class="cls-7" d="M31.69,18.13h2l4.89,11.25h-2.8l-1-2.38H30.5l-0.94,2.38H26.83Zm1,3.27L31.28,24.9H34Z" transform="translate(0 0)"/><path class="cls-7" d="M42,24.58l-4.23-6.45h3.08l2.38,4.21,2.52-4.21h2.94l-4.23,6.45v4.8H42v-4.8Z" transform="translate(0 0)"/><path class="cls-7" d="M15.05,34h7.64v2.29H17.53v2.09H22.4v2.29H17.53V43H23v2.29H15.05V34Z" transform="translate(0 0)"/><path class="cls-7" d="M28.7,39.37L25,34h3.11l2.4,3.94L32.79,34h3l-3.64,5.32,4.07,5.92H33.11l-2.75-4.53L27.7,45.24H24.76Z" transform="translate(0 0)"/><path class="cls-7" d="M38.28,34h2.48V45.24H38.28V34Z" transform="translate(0 0)"/><path class="cls-7" d="M46.14,36.19H42.93V34h8.89v2.19H48.61v9.05H46.14V36.19Z" transform="translate(0 0)"/></g></g></svg>