<?xml version="1.0" encoding="utf-8"?>
<!-- Generator: Adobe Illustrator 18.0.0, SVG Export Plug-In . SVG Version: 6.00 Build 0)  -->
<!DOCTYPE svg PUBLIC "-//W3C//DTD SVG 1.1//EN" "http://www.w3.org/Graphics/SVG/1.1/DTD/svg11.dtd">
<svg version="1.1"
	 id="svg2" xmlns:svg="http://www.w3.org/2000/svg" xmlns:rdf="http://www.w3.org/1999/02/22-rdf-syntax-ns#" xmlns:cc="http://creativecommons.org/ns#" xmlns:dc="http://purl.org/dc/elements/1.1/"
	 xmlns="http://www.w3.org/2000/svg" xmlns:xlink="http://www.w3.org/1999/xlink" x="0px" y="0px" viewBox="4 4 16 16"
	 enable-background="new 4 4 16 16" xml:space="preserve">
<g id="g10" transform="matrix(1.3333333,0,0,-1.3333333,0,24)">
	<g id="g12" transform="scale(0.1)">
		<path id="path14" fill="#6DBA45" d="M150,90c0-33.1-26.9-60-60-60S30,56.9,30,90c0,33.2,26.9,60,60,60S150,123.2,150,90"/>
		<path id="path16" fill="#FFFFFF" d="M65.3,92.7c5.7,0,10.1,4.8,10.1,10.1c0,5.3-4.4,10.1-10.1,10.1c-5.7,0-10.1-4.8-10.1-10.1
			C55.2,97.5,59.6,92.7,65.3,92.7z M87,85.5c0-15.4-7.8-23.6-23.6-23.6c-7.2,0-14.6,1.3-20.5,6l7,10.4C53.7,75,58,73,63.1,73
			c7.6,0,11.3,4.2,11.3,10V87h-0.2c-2.9-3.9-7.7-5.4-11.5-5.4c-12.1,0-20.1,8.7-20.1,21.1c0,10.8,7.1,21.2,18.7,21.2
			c7.1,0,12-3.4,13.9-6.4h0.2v5.4H87V85.5"/>
		<path id="path18" fill="#FFFFFF" d="M114.4,92.2c6.3,0,10.1,4.2,10.1,10.3c0,6.1-3.8,10.3-10.1,10.3c-6.3,0-10.1-4.2-10.1-10.3
			C104.4,96.4,108.2,92.2,114.4,92.2z M114.4,123.9c12.6,0,22.7-8.4,22.7-21.4c0-13-10.1-21.4-22.7-21.4c-12.6,0-22.7,8.4-22.7,21.4
			C91.8,115.5,101.8,123.9,114.4,123.9"/>
		<path id="path20" fill="#FFFFFF" d="M89.9,66.9l0.7,4.9h4.7l1,6.6h5.7l-1-6.6h6.3l-0.7-4.9h-6.3l-1.4-10c-0.3-2.3,0.1-3.7,2.7-3.7
			c1,0,2.4,0.2,3.2,0.7l-0.7-4.8c-1.3-0.6-3.3-0.8-4.7-0.8c-6,0-7.1,2.7-6.3,8.1l1.5,10.5H89.9"/>
		<path id="path22" fill="#FFFFFF" d="M118.4,53.5c4.2,0,7.2,3.3,7.7,6.9c0.5,3.6-1.6,6.8-5.8,6.8c-4.2,0-7.2-3.3-7.7-6.8
			C112.1,56.8,114.2,53.5,118.4,53.5z M121.1,72.4c6.9,0,11.8-4.8,10.8-12c-1-7.2-7.2-12-14.1-12c-6.9,0-11.7,4.8-10.7,12
			C108,67.6,114.1,72.4,121.1,72.4"/>
	</g>
</g>
</svg>
