<svg id="GoGreener" xmlns="http://www.w3.org/2000/svg" viewBox="0 0 68 68"><defs><style>.cls-1{fill:#8bc53f;}.cls-2{fill:#c5dc7f;}.cls-3{fill:#fff;}.cls-4{fill:#ed1b2e;}</style></defs><title>GoGreener</title><rect class="cls-1" width="68" height="68"/><path class="cls-2" d="M48.08,12.67S38,20.7,33,32.1C30,39,21.27,55.82,14.85,68H0V21.28A142.76,142.76,0,0,1,48.08,12.67Z" transform="translate(0)"/><path class="cls-3" d="M40.84,37.44a4.89,4.89,0,0,0,.07,9.78,3.42,3.42,0,0,0,3.77-3H41.27V41.07h6.55v8a1.59,1.59,0,0,1-1.59,1.57,1.62,1.62,0,0,1-1.54-1.17,8.18,8.18,0,0,1-3.77.94,8.07,8.07,0,0,1,0-16.14,8,8,0,0,1,5.31,2,1.64,1.64,0,0,1,.54,1.19,1.59,1.59,0,0,1-2.67,1.15A4.84,4.84,0,0,0,40.84,37.44Z" transform="translate(0)"/><path class="cls-3" d="M62,44.37a6,6,0,1,1-6-6A6.05,6.05,0,0,1,62,44.37Zm-6,3.16a3.17,3.17,0,1,0-3.18-3.16A3.17,3.17,0,0,0,56,47.53Z" transform="translate(0)"/><path class="cls-3" d="M9.58,56.06a2.85,2.85,0,0,0,0,5.71A2,2,0,0,0,11.82,60h-2V58.17h3.82v4.67a0.93,0.93,0,0,1-.93.92,1,1,0,0,1-.9-0.68,4.71,4.71,0,1,1-2.2-8.88,4.68,4.68,0,0,1,3.1,1.17,1,1,0,0,1,.31.7,0.93,0.93,0,0,1-1.56.67A2.83,2.83,0,0,0,9.58,56.06Z" transform="translate(0)"/><path class="cls-3" d="M21.59,62.22a0.87,0.87,0,0,1,.26.63,0.93,0.93,0,0,1-.93.92,1,1,0,0,1-.68-0.29l-3.17-3.21v3.36H15.22V54.2h3.84a3,3,0,0,1,3,3,2.8,2.8,0,0,1-2.5,2.92Zm-1.41-5A1.17,1.17,0,0,0,19,56H17.07v2.36H19A1.18,1.18,0,0,0,20.19,57.18Z" transform="translate(0)"/><path class="cls-3" d="M28.27,58.9a0.93,0.93,0,0,1-.93.92H25v2h4.22l-0.63,1.84H23.21V54.2h6V56H25V58h2.29A0.94,0.94,0,0,1,28.27,58.9Z" transform="translate(0)"/><path class="cls-3" d="M35.58,58.9a0.93,0.93,0,0,1-.93.92H32.34v2h4.22l-0.63,1.84H30.51V54.2h6V56H32.36V58h2.29A0.94,0.94,0,0,1,35.58,58.9Z" transform="translate(0)"/><path class="cls-3" d="M38.74,63.76a0.94,0.94,0,0,1-.93-0.92V54.2H39.7l3.77,6v-6h1.86v9.44H43.5l-3.82-5.93v5.13A0.93,0.93,0,0,1,38.74,63.76Z" transform="translate(0)"/><path class="cls-3" d="M52.17,58.9a0.93,0.93,0,0,1-.93.92H48.93v2h4.22l-0.63,1.84H47.1V54.2h6V56H48.95V58h2.29A0.94,0.94,0,0,1,52.17,58.9Z" transform="translate(0)"/><path class="cls-3" d="M60.79,62.22a0.87,0.87,0,0,1,.26.63,0.93,0.93,0,0,1-.93.92,1,1,0,0,1-.68-0.29l-3.17-3.21v3.36H54.41V54.2h3.84a3,3,0,0,1,3,3,2.8,2.8,0,0,1-2.5,2.92Zm-1.41-5A1.17,1.17,0,0,0,58.19,56H56.27v2.36h1.93A1.18,1.18,0,0,0,59.38,57.18Z" transform="translate(0)"/><path class="cls-4" d="M56.12,5.49a6,6,0,1,0,6,6,6,6,0,0,0-6-6h0Z" transform="translate(0)"/><polygon class="cls-3" points="60.23 10.65 57.19 10.65 57.19 15.85 55.01 15.85 55.01 10.65 51.88 10.65 51.88 8.47 60.23 8.47 60.23 10.65 60.23 10.65"/><path class="cls-1" d="M0,39.8c25.36-27,48.08-27.13,48.08-27.13S21.9,16.91,0,45.17V39.8Z" transform="translate(0)"/></svg>