<svg id="Bus" xmlns="http://www.w3.org/2000/svg" viewBox="0 0 68 68"><defs><style>.cls-1{fill:#0053a0;}</style></defs><title>icon_bus</title><path class="cls-1" d="M48.2,33.2H19.6a1.69,1.69,0,0,1-1.7-1.9c0.3-4.3.5-6.2,1.1-10.6a1.89,1.89,0,0,1,2-1.6H46.9a1.76,1.76,0,0,1,2,1.48v0c0.5,4.2.7,6.5,1.1,10.7a1.76,1.76,0,0,1-1.61,1.89H48.2ZM20.6,39.6a2.6,2.6,0,1,0,2.6,2.6h0A2.65,2.65,0,0,0,20.6,39.6Zm5.3-22.8H42a1.2,1.2,0,1,0,0-2.4H25.9a1.2,1.2,0,1,0,0,2.4h0ZM47.4,39.6A2.6,2.6,0,1,0,50,42.2a2.6,2.6,0,0,0-2.6-2.6h0ZM68,34A34,34,0,1,1,34,0,34,34,0,0,1,68,34Zm-14.5-.5s-0.9-9.4-1.3-13.1c-0.4-4.2-1.4-5.4-4.3-6.7a31.87,31.87,0,0,0-13.8-2.8,31.87,31.87,0,0,0-13.8,2.8c-2.9,1.4-3.9,2.6-4.3,6.7-0.4,3.7-1.3,13.1-1.3,13.1V51.4H18v3.1a2.6,2.6,0,1,0,5.2,0h0V51.4H44.9v3.1a2.6,2.6,0,1,0,5.2,0h0V51.4h3.4V33.5Z"/></svg>