<svg id="NicMallFreeRide" xmlns="http://www.w3.org/2000/svg" viewBox="0 0 68 68"><defs><style>.cls-1{fill:#644b78;}.cls-2{fill:#00a98f;}.cls-3{fill:#f4f5f5;}.cls-4{fill:#fff;}</style></defs><title>Nic_Free-Rides</title><path class="cls-1" d="M68,34A34,34,0,1,1,34,0,34,34,0,0,1,68,34"/><path class="cls-2" d="M18,31.25c0.31-4.26.51-6.19,1.06-10.59a1.91,1.91,0,0,1,2-1.6H46.91a1.85,1.85,0,0,1,2,1.53c0.51,4.18.75,6.53,1.06,10.69a1.75,1.75,0,0,1-1.77,1.9H19.62A1.68,1.68,0,0,1,18,31.25m0,15.2a2.6,2.6,0,1,1,2.6,2.6,2.61,2.61,0,0,1-2.6-2.6m26.87,0a2.6,2.6,0,1,1,2.6,2.6,2.6,2.6,0,0,1-2.6-2.6M43.21,15.6A1.18,1.18,0,0,1,42,16.78H25.87a1.19,1.19,0,1,1,0-2.37H42a1.18,1.18,0,0,1,1.18,1.2M14.54,33.51V51.38H18V54.5a2.61,2.61,0,1,0,5.22,0V51.38H44.83V54.5a2.61,2.61,0,1,0,5.21,0V51.38h3.41V33.51s-0.95-9.37-1.34-13.09c-0.43-4.15-1.39-5.36-4.3-6.74A32.21,32.21,0,0,0,34,10.89a32.22,32.22,0,0,0-13.81,2.79c-2.91,1.38-3.87,2.59-4.3,6.74-0.39,3.72-1.34,13.09-1.34,13.09"/><path class="cls-3" d="M20.43,23.8h5.09v1.54H22.1v1.54h3.16v1.54H22.1v3H20.43V23.8Z"/><path class="cls-3" d="M27.26,23.8h2.93c1.55,0,2.86.54,2.86,2.3a2,2,0,0,1-1.64,2.08l1.93,3.2h-2l-1.59-3H28.93v3H27.26V23.8Zm1.67,3.14h1c0.61,0,1.4,0,1.4-.85s-0.69-.88-1.3-0.88H28.93v1.72Z"/><path class="cls-3" d="M34.79,23.8h5.15v1.54H36.47v1.41h3.29V28.3H36.47v1.54h3.67v1.54H34.79V23.8Z"/><path class="cls-3" d="M42.08,23.8h5.15v1.54H43.75v1.41H47V28.3H43.75v1.54h3.67v1.54H42.08V23.8Z"/><path class="cls-4" d="M21.27,34.79H24.2c1.55,0,2.86.54,2.86,2.3a2,2,0,0,1-1.64,2.08l1.93,3.2h-2l-1.59-3H22.94v3H21.27V34.79Zm1.67,3.14h1c0.61,0,1.4,0,1.4-.85s-0.69-.88-1.3-0.88H22.94v1.72Z"/><path class="cls-4" d="M28.72,34.79h1.67v7.58H28.72V34.79Z"/><path class="cls-4" d="M32.45,34.79H35c2.44,0,4.49,1,4.49,3.81,0,2.45-2,3.77-4.26,3.77H32.45V34.79Zm1.67,6H35c1.55,0,2.72-.59,2.72-2.31,0-1.49-1.19-2.19-2.6-2.19h-1v4.5Z"/><path class="cls-4" d="M41.18,34.79h5.15v1.54H42.85v1.41h3.29v1.54H42.85v1.54h3.67v1.54H41.18V34.79Z"/></svg>