<svg id="Nightowl" xmlns="http://www.w3.org/2000/svg" viewBox="0 0 68 68"><defs><style>.cls-1{fill:#b6cce9;}.cls-2{fill:#0053a0;}.cls-3{fill:#fff;}</style></defs><title>nightowl</title><rect class="cls-1" width="68" height="68"/><polygon class="cls-2" points="34 33.4 6.28 5.67 61.72 5.68 34 33.4"/><path class="cls-3" d="M31.66,17.85A10.13,10.13,0,1,1,21.53,7.73,10.13,10.13,0,0,1,31.66,17.85Z"/><path class="cls-2" d="M21.53,28.57A10.72,10.72,0,1,1,32.25,17.85,10.73,10.73,0,0,1,21.53,28.57Zm0-20.25a9.54,9.54,0,1,0,9.54,9.53A9.55,9.55,0,0,0,21.53,8.32Z"/><path class="cls-3" d="M56.6,17.85A10.13,10.13,0,1,1,46.47,7.73,10.13,10.13,0,0,1,56.6,17.85Z"/><path class="cls-2" d="M46.47,28.57A10.72,10.72,0,1,1,57.19,17.85,10.73,10.73,0,0,1,46.47,28.57Zm0-20.25A9.54,9.54,0,1,0,56,17.85,9.55,9.55,0,0,0,46.47,8.32Z"/><path class="cls-2" d="M10.48,38.62H13L18,46.42l0,0h0l0,0v-7.8h1.87V49.11H17.57l-5.19-8h0v8H10.48V38.62Z"/><path class="cls-2" d="M22.85,38.62h1.86V49.11H22.85V38.62Z"/><path class="cls-2" d="M36.93,48.34a9.15,9.15,0,0,1-4.35,1A5.25,5.25,0,0,1,27,43.91a5.28,5.28,0,0,1,5.54-5.56,6,6,0,0,1,4.13,1.32l-1.38,1.4a4,4,0,0,0-2.74-1A3.56,3.56,0,0,0,29,43.79a3.6,3.6,0,0,0,3.6,3.9,5,5,0,0,0,2.46-.55V44.67H32.91V43h4v5.37Z"/><path class="cls-2" d="M39.75,38.62h1.87V42.8h4.91V38.62h1.87V49.11H46.52V44.49H41.61v4.63H39.75V38.62Z"/><path class="cls-2" d="M53.49,40.31H50.27V38.62h8.3v1.69H55.36v8.81H53.49V40.31Z"/><path class="cls-2" d="M22.24,53.19a5.21,5.21,0,0,1,5.59,5.5,5.35,5.35,0,0,1-5.59,5.53A5.51,5.51,0,1,1,22.24,53.19Zm0,9.34a3.6,3.6,0,0,0,3.62-3.9,3.61,3.61,0,1,0-7.22,0A3.6,3.6,0,0,0,22.26,62.53Z"/><path class="cls-2" d="M29.05,53.46h2l2,7.56h0l2.36-7.56h1.84L39.6,61h0l2.06-7.56h1.9L40.54,64H38.76l-2.43-8h0l-2.43,8H32.15Z"/><path class="cls-2" d="M45.37,53.46h1.87v8.81H51.7V64H45.37V53.46Z"/><path class="cls-2" d="M24.57,15.46l-2.71,2.71v-4c-0.11,0-.22,0-0.33,0A4.24,4.24,0,1,0,24.57,15.46Z"/><path class="cls-2" d="M49.46,15.39l-2.78,2.78v-4l-0.21,0A4.22,4.22,0,1,0,49.46,15.39Z"/></svg>