<svg id="Train" xmlns="http://www.w3.org/2000/svg" viewBox="0 0 68 68"><defs><style>.cls-1{fill:#0053a0;}</style></defs><title>icon_train</title><path class="cls-1" d="M30.71,23.66A3.29,3.29,0,1,1,34,27a3.29,3.29,0,0,1-3.29-3.29h0ZM39.18,48.9H28.77a0.32,0.32,0,0,0-.3.15L27.1,51.47a0.24,0.24,0,0,0,.24.36H40.61a0.24,0.24,0,0,0,.23-0.36L39.48,49A0.32,0.32,0,0,0,39.18,48.9ZM23.45,17.21h0.17l6.6-1.32a0.82,0.82,0,0,0,.7-0.81V11.24a0.82,0.82,0,0,0-.82-0.82H29.89l-6.62,1.31a0.82,0.82,0,0,0-.66.81v3.85a0.82,0.82,0,0,0,.82.82h0Zm14.31-1.33,6.6,1.32h0.16a0.82,0.82,0,0,0,.82-0.82V12.54a0.82,0.82,0,0,0-.66-0.81l-6.62-1.31H37.85a0.82,0.82,0,0,0-.82.82v3.84a0.82,0.82,0,0,0,.73.79h0ZM68,34A34,34,0,1,1,34,0,34,34,0,0,1,68,34ZM50.91,22.48A2.84,2.84,0,0,0,49.48,20a2.79,2.79,0,0,1-1.37-2.42h0v-5.1a3.76,3.76,0,0,0-3-3.69L34.76,6.7A4.61,4.61,0,0,0,34,6.63a3.81,3.81,0,0,0-.75.07L22.94,8.79a3.76,3.76,0,0,0-3,3.69v5.14h0A2.79,2.79,0,0,1,18.53,20a2.84,2.84,0,0,0-1.43,2.43V42.28h0a2.82,2.82,0,0,0,1.4,2.44l6,3.45a0.52,0.52,0,0,1,.19.64l-7.2,12.56h4.23l0.51-.89a0.5,0.5,0,0,1,.44-0.26H45.3a0.51,0.51,0,0,1,.45.26l0.49,0.87h4.23L43.3,49a0.59,0.59,0,0,1,.18-0.73l6-3.45a2.82,2.82,0,0,0,1.4-2.44V22.48h0ZM43.6,37.67a2.26,2.26,0,1,0,2.25,2.27s0,0,0,0A2.25,2.25,0,0,0,43.6,37.67Zm-1.29,16.9H25.67a0.32,0.32,0,0,0-.3.15L24,57.15a0.23,0.23,0,0,0,.24.36H43.77A0.23,0.23,0,0,0,44,57.15l-1.39-2.43a0.34,0.34,0,0,0-.3-0.14h0ZM26.43,39.93a2.25,2.25,0,1,0-2.25,2.26,2.25,2.25,0,0,0,2.25-2.26h0Z"/></svg>