<svg id="Alert" xmlns="http://www.w3.org/2000/svg" viewBox="0 0 60 26"><defs><style>.cls-1{fill:#ed1b2e;}.cls-2{fill:#fff;}.cls-3{fill:#f5f5f5;}</style></defs><title>Alert-redbar</title><rect class="cls-1" width="60" height="26" rx="8" ry="8"/><path class="cls-2" d="M50.42,16.08h1.52V10.55h2V9.2H48.45v1.34h2v5.54ZM44,10.49h1c0.56,0,1.18.11,1.18,0.8S45.43,12,44.87,12H44V10.49Zm-1.52,5.6H44V13.33h0.75l1.44,2.75H48l-1.75-2.9a1.77,1.77,0,0,0,1.49-1.89c0-1.6-1.19-2.09-2.59-2.09H42.46v6.88Zm-6.25,0h4.85v-1.4H37.73v-1.4h3v-1.4h-3V10.6h3.16V9.2H36.21v6.88Zm-5.31,0h4.32v-1.4H32.42V9.2H30.9v6.88Zm-3.75-2.74H25.47l0.84-2.14Zm-4.4,2.74h1.67L25,14.62h2.67l0.59,1.46H30L27,9.2H25.73Z"/><path class="cls-3" d="M13.12,6.64a6,6,0,1,0,6,6A6,6,0,0,0,13.12,6.64ZM12.36,8.11h1.52v6.17H12.36V8.11Zm0.76,9.06a1,1,0,1,1,1-1A1,1,0,0,1,13.12,17.17Z"/></svg>