<svg id="LightRail" xmlns="http://www.w3.org/2000/svg" viewBox="0 0 68.05 68.05"><defs><style>.cls-1{fill:#00539f;}</style></defs><title>icon_lightrail</title><path class="cls-1" d="M25.32,46.85a3.06,3.06,0,1,1,3.07-3.06A3.06,3.06,0,0,1,25.32,46.85Zm5.3-29h6.77a1.14,1.14,0,0,0,1.14-1.14v-2a1.15,1.15,0,0,0-1.14-1.13H30.62a1.16,1.16,0,0,0-1.15,1.13v2A1.14,1.14,0,0,0,30.62,17.85Zm3.31-5.69h0.73l2.1-5.25c-0.77,0-1.64,0-2.61,0s-1.85,0-2.62,0l1.76,5.25h0.65ZM28.06,53.32H39.94A0.23,0.23,0,0,0,40.17,53l-1.35-2.33a0.3,0.3,0,0,0-.29-0.14H29.47a0.32,0.32,0,0,0-.29.14L27.83,53A0.23,0.23,0,0,0,28.06,53.32ZM68,34A34,34,0,1,1,34,0,34,34,0,0,1,68,34ZM49.58,18.92a6.9,6.9,0,0,0-7-6.75h-7l2-5a0.41,0.41,0,0,0,0-.19c4.51,0.17,5.16.68,5.24,0.79a0.4,0.4,0,0,0,.8,0c0-.71-0.89-1.1-3.08-1.34a59.94,59.94,0,0,0-6.39-.27c-5.81,0-8.48.3-9.21,1a0.79,0.79,0,0,0-.25.58,0.4,0.4,0,0,0,.8,0c0.11-.21.89-0.63,5.24-0.77a0.4,0.4,0,0,0,0,.18l1.68,5H25.4a6.9,6.9,0,0,0-7,6.75V43.85a6.85,6.85,0,0,0,5.35,6.64h2.42l-6.6,11.43h3.11l0.15-.26a0.48,0.48,0,0,1,.43-0.26H44.74a0.47,0.47,0,0,1,.43.26l0.14,0.26h3.12l-6.6-11.43h2.42a6.85,6.85,0,0,0,5.35-6.64V18.92Zm-23.23,37a0.32,0.32,0,0,0-.29.14l-1.34,2.33a0.23,0.23,0,0,0,.23.35H43.06a0.23,0.23,0,0,0,.22-0.35l-1.34-2.33a0.3,0.3,0,0,0-.28-0.14H26.35Zm16-36.75H25.63a3.32,3.32,0,0,0-3.48,3.49v4.49a3.32,3.32,0,0,0,3.48,3.48H42.37a3.32,3.32,0,0,0,3.48-3.48V22.69A3.31,3.31,0,0,0,42.37,19.2Zm0.38,21.53a3.06,3.06,0,1,0,3.06,3.06A3.06,3.06,0,0,0,42.75,40.72Z" transform="translate(0.02 0.02)"/></svg>